<svg xmlns="http://www.w3.org/2000/svg" viewBox="0 0 640 360" width="640" height="360" role="img" aria-labelledby="title desc">
  <title id="title">Circuit Putt cover</title>
  <desc id="desc">Neon mini-golf course with a glowing ball, rails, bumpers, sand, and cup.</desc>
  <defs>
    <linearGradient id="bg" x1="0" y1="0" x2="1" y2="1">
      <stop offset="0" stop-color="#0b1220"/>
      <stop offset=".58" stop-color="#071827"/>
      <stop offset="1" stop-color="#050914"/>
    </linearGradient>
    <linearGradient id="green" x1="80" y1="70" x2="560" y2="300">
      <stop offset="0" stop-color="#0e6b56"/>
      <stop offset=".55" stop-color="#0f5448"/>
      <stop offset="1" stop-color="#123b45"/>
    </linearGradient>
    <filter id="glow" x="-30%" y="-30%" width="160%" height="160%">
      <feGaussianBlur stdDeviation="6" result="blur"/>
      <feMerge><feMergeNode in="blur"/><feMergeNode in="SourceGraphic"/></feMerge>
    </filter>
  </defs>
  <rect width="640" height="360" fill="url(#bg)"/>
  <g opacity=".28" stroke="#5eead4" stroke-width="1">
    <path d="M0 64h640M0 128h640M0 192h640M0 256h640M64 0v360M128 0v360M192 0v360M256 0v360M320 0v360M384 0v360M448 0v360M512 0v360M576 0v360"/>
  </g>
  <rect x="58" y="54" width="524" height="252" rx="26" fill="url(#green)" stroke="#5eead4" stroke-width="7" filter="url(#glow)"/>
  <g opacity=".22" stroke="#e6fff9" stroke-width="1.2">
    <path d="M85 96h470M85 144h470M85 192h470M85 240h470"/>
  </g>
  <g fill="#0b1628" stroke="#7c9eff" stroke-width="4">
    <rect x="236" y="155" width="162" height="18" rx="8"/>
    <rect x="430" y="95" width="20" height="118" rx="8"/>
  </g>
  <g>
    <rect x="360" y="221" width="142" height="58" rx="18" fill="#f4c978" opacity=".26" stroke="#f4c978" stroke-width="3"/>
    <path d="M350 279l62-62M382 281l62-62M414 282l62-62M446 282l62-62" stroke="#ffeab4" stroke-width="2" opacity=".45"/>
  </g>
  <g filter="url(#glow)">
    <circle cx="318" cy="112" r="26" fill="#22d3ee"/>
    <circle cx="318" cy="112" r="13" fill="#e6fff9"/>
    <circle cx="506" cy="109" r="17" fill="#06121f" stroke="#5eead4" stroke-width="5"/>
    <circle cx="506" cy="109" r="29" fill="none" stroke="#5eead4" stroke-width="2" opacity=".38"/>
  </g>
  <g filter="url(#glow)">
    <path d="M121 259C190 230 259 190 337 168c68-20 116-34 169-58" fill="none" stroke="#5eead4" stroke-width="5" stroke-linecap="round" opacity=".72"/>
    <path d="M121 259l56-38" fill="none" stroke="#e6fff9" stroke-width="3" stroke-linecap="round" opacity=".6"/>
    <circle cx="121" cy="259" r="12" fill="#e6fff9" stroke="#22d3ee" stroke-width="5"/>
  </g>
  <g font-family="ui-sans-serif,system-ui,-apple-system,Segoe UI,sans-serif" letter-spacing="0">
    <text x="42" y="34" fill="#5eead4" font-size="13" font-weight="800">WORKSHOP ARCADE</text>
    <text x="42" y="333" fill="#e6edf3" font-size="34" font-weight="900">CIRCUIT PUTT</text>
    <g transform="translate(443 259)">
      <rect width="108" height="35" rx="12" fill="#0b1628" stroke="#5eead4" opacity=".94"/>
      <text x="14" y="23" fill="#5eead4" font-size="14" font-weight="800">PAR 9</text>
      <text x="70" y="23" fill="#e6edf3" font-size="14" font-weight="900">-2</text>
    </g>
  </g>
</svg>
