<svg xmlns="http://www.w3.org/2000/svg" width="640" height="360" viewBox="0 0 640 360" role="img" aria-labelledby="t d">
<title id="t">Floodgate cover</title><desc id="d">A neon color grid being flooded from the top-left corner, with a color-and-glyph legend, plus Floodgate title art.</desc>
<defs><linearGradient id="b" x1="0" x2="1" y1="0" y2="1"><stop stop-color="#06101a"/><stop offset="1" stop-color="#0a1c24"/></linearGradient></defs>
<rect width="640" height="360" fill="url(#b)"/>
<circle cx="84" cy="26" r="132" fill="#2dd4bf" opacity=".12"/><circle cx="582" cy="48" r="150" fill="#6366f1" opacity=".13"/>
<path d="M0 291h640v69H0z" fill="#04070f" opacity=".64"/>
<g transform="translate(132 50)">
<g>
<rect x="0" y="0" width="52" height="52" rx="7" fill="#22d3ee"/><rect x="58" y="0" width="52" height="52" rx="7" fill="#22d3ee"/><rect x="116" y="0" width="52" height="52" rx="7" fill="#fbbf24"/><rect x="174" y="0" width="52" height="52" rx="7" fill="#fb7185"/><rect x="232" y="0" width="52" height="52" rx="7" fill="#6366f1"/><rect x="290" y="0" width="52" height="52" rx="7" fill="#eef2ff"/><rect x="348" y="0" width="52" height="52" rx="7" fill="#4ade80"/>
<rect x="0" y="58" width="52" height="52" rx="7" fill="#22d3ee"/><rect x="58" y="58" width="52" height="52" rx="7" fill="#fb7185"/><rect x="116" y="58" width="52" height="52" rx="7" fill="#6366f1"/><rect x="174" y="58" width="52" height="52" rx="7" fill="#eef2ff"/><rect x="232" y="58" width="52" height="52" rx="7" fill="#4ade80"/><rect x="290" y="58" width="52" height="52" rx="7" fill="#fbbf24"/><rect x="348" y="58" width="52" height="52" rx="7" fill="#fb7185"/>
<rect x="0" y="116" width="52" height="52" rx="7" fill="#fbbf24"/><rect x="58" y="116" width="52" height="52" rx="7" fill="#6366f1"/><rect x="116" y="116" width="52" height="52" rx="7" fill="#eef2ff"/><rect x="174" y="116" width="52" height="52" rx="7" fill="#4ade80"/><rect x="232" y="116" width="52" height="52" rx="7" fill="#22d3ee"/><rect x="290" y="116" width="52" height="52" rx="7" fill="#fb7185"/><rect x="348" y="116" width="52" height="52" rx="7" fill="#6366f1"/>
<rect x="0" y="174" width="52" height="52" rx="7" fill="#eef2ff"/><rect x="58" y="174" width="52" height="52" rx="7" fill="#4ade80"/><rect x="116" y="174" width="52" height="52" rx="7" fill="#fbbf24"/><rect x="174" y="174" width="52" height="52" rx="7" fill="#22d3ee"/><rect x="232" y="174" width="52" height="52" rx="7" fill="#fb7185"/><rect x="290" y="174" width="52" height="52" rx="7" fill="#6366f1"/><rect x="348" y="174" width="52" height="52" rx="7" fill="#eef2ff"/>
</g>
<path d="M-3 -3h113v55h-55v55h-55z" fill="none" stroke="#ffffff" stroke-width="4" stroke-linejoin="round" opacity=".92"/>
</g>
<g transform="translate(556 60)" font-family="system-ui,Segoe UI,sans-serif" font-weight="950" font-size="16" text-anchor="middle">
<rect width="34" height="34" rx="8" fill="#22d3ee"/><text x="17" y="24" fill="#053038">◆</text>
<rect y="42" width="34" height="34" rx="8" fill="#fbbf24"/><text x="17" y="66" fill="#3a2606">■</text>
<rect y="84" width="34" height="34" rx="8" fill="#fb7185"/><text x="17" y="108" fill="#3c0d16">★</text>
<rect y="126" width="34" height="34" rx="8" fill="#6366f1"/><text x="17" y="150" fill="#f3fbff">▲</text>
<rect y="168" width="34" height="34" rx="8" fill="#4ade80"/><text x="17" y="192" fill="#06301c">✦</text>
</g>
<text x="320" y="331" text-anchor="middle" fill="#f3fbff" font-family="system-ui,Segoe UI,sans-serif" font-size="37" font-weight="950">FLOODGATE</text>
<text x="320" y="352" text-anchor="middle" fill="#5eead4" font-family="system-ui,Segoe UI,sans-serif" font-size="12" font-weight="900" letter-spacing="3">WORKSHOP ARCADE</text>
</svg>
