<svg xmlns="http://www.w3.org/2000/svg" viewBox="0 0 640 360" role="img" aria-labelledby="t d">
<title id="t">Letter Foundry cover</title><desc id="d">Glowing letter tiles forged into words.</desc>
<defs><linearGradient id="b" x1="0" y1="0" x2="1" y2="1"><stop stop-color="#081522"/><stop offset=".55" stop-color="#0d2638"/><stop offset="1" stop-color="#11202c"/></linearGradient><linearGradient id="m" x1="0" y1="0" x2="0" y2="1"><stop stop-color="#66f4ff"/><stop offset="1" stop-color="#18aeca"/></linearGradient><filter id="g"><feGaussianBlur stdDeviation="8" result="x"/><feMerge><feMergeNode in="x"/><feMergeNode in="SourceGraphic"/></feMerge></filter></defs>
<rect width="640" height="360" fill="url(#b)"/>
<circle cx="88" cy="52" r="130" fill="#36d5e8" opacity=".16"/><circle cx="555" cy="42" r="115" fill="#ffd166" opacity=".12"/>
<path d="M60 278h520l-28 44H88z" fill="#06111c" opacity=".78"/><path d="M92 264h456" stroke="#66f4ff" stroke-width="4" opacity=".45"/>
<g filter="url(#g)" font-family="Verdana,Arial,sans-serif" font-weight="900" text-anchor="middle">
<g transform="translate(120 110)"><rect x="-42" y="-42" width="84" height="84" rx="14" fill="url(#m)" stroke="#b8fbff" stroke-width="3"/><text y="15" font-size="48" fill="#06242b">F</text></g>
<g transform="translate(220 110)"><rect x="-42" y="-42" width="84" height="84" rx="14" fill="#17334a" stroke="#66f4ff" stroke-width="3"/><text y="15" font-size="48" fill="#f3fbff">O</text></g>
<g transform="translate(320 110)"><rect x="-42" y="-42" width="84" height="84" rx="14" fill="#17334a" stroke="#66f4ff" stroke-width="3"/><text y="15" font-size="48" fill="#f3fbff">R</text></g>
<g transform="translate(420 110)"><rect x="-42" y="-42" width="84" height="84" rx="14" fill="#17334a" stroke="#66f4ff" stroke-width="3"/><text y="15" font-size="48" fill="#f3fbff">G</text></g>
<g transform="translate(520 110)"><rect x="-42" y="-42" width="84" height="84" rx="14" fill="#ffd166" stroke="#fff0a6" stroke-width="3"/><text y="15" font-size="48" fill="#3b2600">E</text></g>
</g>
<g fill="none" stroke-linecap="round"><path d="M142 214c58-24 103-24 150 0s100 24 154-2" stroke="#66f4ff" stroke-width="7" opacity=".8"/><path d="M178 238h284" stroke="#ffd166" stroke-width="9" opacity=".72"/></g>
<text x="320" y="312" font-family="Verdana,Arial,sans-serif" font-size="38" font-weight="900" text-anchor="middle" fill="#f3fbff" letter-spacing="2">LETTER FOUNDRY</text>
</svg>
