<svg xmlns="http://www.w3.org/2000/svg" width="640" height="360" viewBox="0 0 640 360" role="img" aria-labelledby="t d">
<title id="t">Lumen Lander cover</title>
<desc id="d">A glowing lunar lander feathers thrust toward a lit crater pad.</desc>
<defs>
<linearGradient id="b" x1="0" x2="0" y1="0" y2="1"><stop stop-color="#071827"/><stop offset=".74" stop-color="#080b19"/><stop offset="1" stop-color="#050711"/></linearGradient>
<linearGradient id="g" x1="0" x2="0" y1="0" y2="1"><stop stop-color="#254763"/><stop offset="1" stop-color="#07101d"/></linearGradient>
<filter id="l" x="-50%" y="-50%" width="200%" height="200%"><feGaussianBlur stdDeviation="5" result="q"/><feMerge><feMergeNode in="q"/><feMergeNode in="SourceGraphic"/></feMerge></filter>
</defs>
<rect width="640" height="360" fill="url(#b)"/>
<g fill="#dff9ff" opacity=".7"><circle cx="46" cy="66" r="1.4"/><circle cx="118" cy="40" r="1"/><circle cx="196" cy="94" r="1.2"/><circle cx="272" cy="48" r="1.5"/><circle cx="363" cy="82" r="1"/><circle cx="454" cy="42" r="1.2"/><circle cx="596" cy="88" r="1.4"/><circle cx="544" cy="152" r="1"/><circle cx="82" cy="174" r="1"/></g>
<path d="M0 258 82 228 156 276 246 214 320 286 404 242 468 242 554 196 640 252v108H0z" fill="url(#g)" stroke="#67e8f9" stroke-opacity=".44" stroke-width="3"/>
<path d="M398 240h72" stroke="#facc15" stroke-width="7" stroke-linecap="round" filter="url(#l)"/>
<path d="M314 102c82 10 128 52 126 126" fill="none" stroke="#67e8f9" stroke-dasharray="11 10" stroke-opacity=".54" stroke-width="4"/>
<g transform="translate(312 118) rotate(8)" stroke-linejoin="round" filter="url(#l)">
<path d="M0-48 28 18 13 31h-26l-15-13z" fill="#123149" stroke="#d8fbff" stroke-width="5"/>
<circle cy="-14" r="13" fill="#67e8f9" stroke="#d8fbff" stroke-width="4"/>
<path d="M-18 22-42 44h25M18 22 42 44H17" fill="none" stroke="#facc15" stroke-width="4"/>
<path d="M-11 30 0 74 11 30z" fill="#fb7185" stroke="#facc15" stroke-width="3"/>
</g>
<text x="34" y="50" fill="#67e8f9" font-family="Arial, sans-serif" font-size="13" font-weight="900">WORKSHOP ARCADE</text>
<text x="34" y="332" fill="#edf7ff" font-family="Arial, sans-serif" font-size="44" font-weight="900">LUMEN LANDER</text>
</svg>
