<svg xmlns="http://www.w3.org/2000/svg" viewBox="0 0 640 360" width="640" height="360">
  <rect width="640" height="360" fill="#1a1a2e"/>
  <!-- Tunnel ceiling -->
  <rect width="640" height="137" fill="#12121f"/>
  <!-- Perspective track -->
  <polygon points="320,137 325,137 430,360 210,360" fill="#3a3a4e"/>
  <!-- Lane dividers -->
  <line x1="282" y1="360" x2="321" y2="137" stroke="rgba(255,200,50,0.4)" stroke-width="1.5"/>
  <line x1="358" y1="360" x2="323" y2="137" stroke="rgba(255,200,50,0.4)" stroke-width="1.5"/>
  <!-- Left wall -->
  <polygon points="0,0 320,137 210,360 0,360" fill="#0e0e1a" opacity="0.8"/>
  <!-- Right wall -->
  <polygon points="640,0 325,137 430,360 640,360" fill="#0e0e1a" opacity="0.8"/>
  <!-- Ceiling lights -->
  <rect x="305" y="80" width="30" height="3" rx="1" fill="#ffdc96" opacity="0.5"/>
  <rect x="310" y="100" width="20" height="2" rx="1" fill="#ffdc96" opacity="0.4"/>
  <rect x="314" y="115" width="12" height="2" rx="1" fill="#ffdc96" opacity="0.3"/>
  <rect x="316" y="125" width="8" height="1" rx="1" fill="#ffdc96" opacity="0.2"/>
  <!-- Track ties -->
  <line x1="230" y1="300" x2="410" y2="300" stroke="#64503c" stroke-width="2" opacity="0.4"/>
  <line x1="250" y1="270" x2="390" y2="270" stroke="#64503c" stroke-width="1.5" opacity="0.35"/>
  <line x1="265" y1="240" x2="375" y2="240" stroke="#64503c" stroke-width="1.5" opacity="0.3"/>
  <line x1="278" y1="215" x2="362" y2="215" stroke="#64503c" stroke-width="1" opacity="0.25"/>
  <!-- Player character -->
  <rect x="302" y="280" width="16" height="40" rx="2" fill="#4fc3f7"/>
  <circle cx="310" cy="274" r="7" fill="#ffe0b2"/>
  <rect x="300" y="268" width="20" height="5" rx="1" fill="#e53935"/>
  <!-- Legs -->
  <rect x="304" y="320" width="5" height="18" fill="#1565c0"/>
  <rect x="312" y="320" width="5" height="14" fill="#1565c0"/>
  <!-- Coins -->
  <circle cx="310" cy="230" r="5" fill="#ffd700"/>
  <circle cx="310" cy="210" r="4.5" fill="#ffd700" opacity="0.8"/>
  <circle cx="310" cy="192" r="4" fill="#ffd700" opacity="0.6"/>
  <!-- Obstacle (train in distance) -->
  <rect x="340" y="175" width="18" height="35" rx="1" fill="#1565c0" opacity="0.7"/>
  <rect x="343" y="182" width="5" height="5" fill="#bbdefb" opacity="0.7"/>
  <rect x="350" y="182" width="5" height="5" fill="#bbdefb" opacity="0.7"/>
  <!-- Title -->
  <text x="320" y="40" font-family="'Segoe UI',Arial,sans-serif" font-size="32" font-weight="bold" fill="#4fc3f7" text-anchor="middle" letter-spacing="4">METRO DASH</text>
  <text x="320" y="60" font-family="'Segoe UI',Arial,sans-serif" font-size="12" fill="#aaa" text-anchor="middle" opacity="0.6">Sprint through the subway</text>
</svg>