<svg xmlns="http://www.w3.org/2000/svg" width="640" height="360" viewBox="0 0 640 360" role="img" aria-labelledby="t d">
<title id="t">Patchwork Foundry cover</title><desc id="d">Dark workshop polyomino puzzle board with power traces, vents, and compact HUD.</desc>
<defs>
<linearGradient id="bg" x1="0" y1="0" x2="1" y2="1"><stop stop-color="#071018"/><stop offset="1" stop-color="#101827"/></linearGradient>
<linearGradient id="p" x1="0" y1="0" x2="1" y2="1"><stop stop-color="#22d3ee"/><stop offset="1" stop-color="#34d399"/></linearGradient>
<filter id="g"><feGaussianBlur stdDeviation="4" result="b"/><feMerge><feMergeNode in="b"/><feMergeNode in="SourceGraphic"/></feMerge></filter>
</defs>
<rect width="640" height="360" fill="url(#bg)"/>
<path d="M0 70h640M0 146h640M0 222h640M0 298h640M80 0v360M176 0v360M272 0v360M368 0v360M464 0v360M560 0v360" stroke="#67e8f9" stroke-opacity=".07"/>
<rect x="28" y="24" width="584" height="52" rx="10" fill="#0d1a2b" stroke="#67e8f9" stroke-opacity=".28"/>
<text x="48" y="56" fill="#f8fbff" font-family="system-ui,Segoe UI,Arial" font-size="28" font-weight="900">PATCHWORK FOUNDRY</text>
<g fill="#101827" stroke="#67e8f9" stroke-opacity=".3">
<rect x="48" y="104" width="330" height="216" rx="14"/>
<rect x="418" y="106" width="174" height="32" rx="8"/>
<rect x="418" y="150" width="174" height="32" rx="8"/>
<rect x="418" y="194" width="174" height="32" rx="8"/>
<rect x="418" y="238" width="174" height="52" rx="8"/>
</g>
<g transform="translate(76 126)">
<g stroke="#1c3149" stroke-width="2">
<path d="M0 0h252M0 36h252M0 72h252M0 108h252M0 144h252M0 180h252M0 0v180M36 0v180M72 0v180M108 0v180M144 0v180M180 0v180M216 0v180M252 0v180"/>
</g>
<rect x="110" y="74" width="32" height="32" rx="5" fill="#12334a" stroke="#67e8f9"/>
<path d="M116 84h20M116 92h20M116 100h20" stroke="#67e8f9" stroke-width="3"/>
<rect x="146" y="110" width="32" height="32" rx="5" fill="#12334a" stroke="#67e8f9"/>
<path d="M152 120h20M152 128h20M152 136h20" stroke="#67e8f9" stroke-width="3"/>
<g filter="url(#g)">
<rect x="2" y="74" width="32" height="32" rx="8" fill="#fbbf24"/>
<rect x="218" y="38" width="32" height="32" rx="8" fill="#34d399"/>
<rect x="218" y="146" width="32" height="32" rx="8" fill="#34d399"/>
</g>
<g fill="url(#p)" stroke="#e0fbff" stroke-opacity=".5">
<rect x="38" y="74" width="32" height="32" rx="6"/><rect x="74" y="74" width="32" height="32" rx="6"/><rect x="74" y="110" width="32" height="32" rx="6"/>
<rect x="110" y="110" width="32" height="32" rx="6"/><rect x="146" y="146" width="32" height="32" rx="6"/><rect x="182" y="146" width="32" height="32" rx="6"/>
<rect x="146" y="38" width="32" height="32" rx="6"/><rect x="182" y="38" width="32" height="32" rx="6"/>
</g>
<path d="M18 90h234M234 54v108" stroke="#fbbf24" stroke-width="5" stroke-linecap="round" stroke-opacity=".65" fill="none"/>
</g>
<g font-family="system-ui,Segoe UI,Arial" font-weight="900">
<text x="438" y="127" fill="#67e8f9" font-size="14">STAGE 4/5</text>
<text x="438" y="171" fill="#fbbf24" font-size="14">MOVES 3</text>
<text x="438" y="215" fill="#34d399" font-size="14">PORTS 3/3</text>
<text x="438" y="262" fill="#e9f2ff" font-size="15">VENTS OPEN</text>
<text x="438" y="282" fill="#9fb3c7" font-size="11">Q/E rotate plates</text>
</g>
<circle cx="598" cy="44" r="18" fill="#22d3ee" opacity=".22"/>
<circle cx="598" cy="44" r="7" fill="#67e8f9"/>
</svg>
