<svg xmlns="http://www.w3.org/2000/svg" width="640" height="360" viewBox="0 0 640 360" role="img" aria-label="Penalty Circuit cover">
  <defs>
    <linearGradient id="g" x1="0" y1="0" x2="0" y2="1">
      <stop offset="0" stop-color="#071018"/>
      <stop offset=".55" stop-color="#0b4f45"/>
      <stop offset="1" stop-color="#0a1d25"/>
    </linearGradient>
    <radialGradient id="a" cx=".22" cy=".1" r=".8">
      <stop offset="0" stop-color="#22d3ee" stop-opacity=".45"/>
      <stop offset="1" stop-color="#22d3ee" stop-opacity="0"/>
    </radialGradient>
  </defs>
  <rect width="640" height="360" fill="url(#g)"/>
  <rect width="640" height="360" fill="url(#a)"/>
  <path d="M40 302c120-42 248-55 560-8M63 247c145-34 303-39 515-2M100 205c130-22 306-26 440-3" fill="none" stroke="#ccfbf1" stroke-opacity=".2" stroke-width="4"/>
  <path d="M148 55h344v112H148z" fill="#061019" fill-opacity=".62" stroke="#e6edf3" stroke-width="8"/>
  <path d="M216 59v104M284 59v104M356 59v104M424 59v104" stroke="#e6edf3" stroke-opacity=".32" stroke-width="3"/>
  <path d="M258 223c58-49 99-80 144-104" fill="none" stroke="#5eead4" stroke-width="5" stroke-linecap="round" stroke-dasharray="11 12"/>
  <circle cx="242" cy="238" r="20" fill="#f8fafc"/>
  <circle cx="242" cy="238" r="9" fill="none" stroke="#0f172a" stroke-width="3"/>
  <g transform="translate(397 132)" stroke="#fda4af" stroke-width="12" stroke-linecap="round" stroke-linejoin="round">
    <path d="M-47 0L-10 15 45-12"/>
    <path d="M-18 58L0 16 28 58"/>
    <rect x="-21" y="-9" width="42" height="55" rx="8" fill="#fb7185" stroke="none"/>
    <circle cx="0" cy="-29" r="18" fill="#fecdd3" stroke="none"/>
  </g>
  <text x="44" y="52" fill="#5eead4" font-family="Arial, sans-serif" font-size="18" font-weight="800">WORKSHOP ARCADE</text>
  <text x="44" y="335" fill="#e6edf3" font-family="Arial, sans-serif" font-size="46" font-weight="900">PENALTY CIRCUIT</text>
</svg>
