<svg xmlns="http://www.w3.org/2000/svg" width="640" height="360" viewBox="0 0 640 360" role="img" aria-labelledby="t d">
<title id="t">Tempo Forge cover</title><desc id="d">A dark workshop rhythm grid with four glowing pads and a golden beat marker.</desc>
<defs><linearGradient id="bg" x1="0" x2="1" y1="0" y2="1"><stop stop-color="#0b0f14"/><stop offset="1" stop-color="#101827"/></linearGradient><linearGradient id="c" x1="0" x2="0" y1="0" y2="1"><stop stop-color="#6cf0d8"/><stop offset="1" stop-color="#22d3ee"/></linearGradient><filter id="g"><feGaussianBlur stdDeviation="4" result="b"/><feMerge><feMergeNode in="b"/><feMergeNode in="SourceGraphic"/></feMerge></filter></defs>
<rect width="640" height="360" fill="url(#bg)"/>
<circle cx="88" cy="28" r="170" fill="#5eead4" opacity=".13"/><circle cx="562" cy="42" r="146" fill="#7c9eff" opacity=".12"/>
<g stroke="#5eead4" stroke-opacity=".08" stroke-width="1"><path d="M0 72h640M0 144h640M0 216h640M0 288h640M80 0v360M160 0v360M240 0v360M320 0v360M400 0v360M480 0v360M560 0v360"/></g>
<text x="42" y="64" fill="#5eead4" font-family="Arial, sans-serif" font-size="13" font-weight="700">WORKSHOP ARCADE</text>
<text x="42" y="98" fill="#e6edf3" font-family="Arial, sans-serif" font-size="36" font-weight="900">TEMPO FORGE</text>
<g transform="translate(130 130)" filter="url(#g)">
<rect x="0" y="0" width="390" height="160" rx="18" fill="#0f172a" stroke="#5eead4" stroke-opacity=".35"/>
<rect x="34" y="22" width="54" height="32" rx="9" fill="url(#c)"/><rect x="121" y="22" width="54" height="32" rx="9" fill="#fbbf24" opacity=".36"/><rect x="208" y="22" width="54" height="32" rx="9" fill="#7c9eff"/><rect x="295" y="22" width="54" height="32" rx="9" fill="#fb7185" opacity=".34"/>
<rect x="34" y="68" width="54" height="32" rx="9" fill="#fbbf24"/><rect x="121" y="68" width="54" height="32" rx="9" fill="#172033" stroke="#5eead4" stroke-opacity=".28"/><rect x="208" y="68" width="54" height="32" rx="9" fill="url(#c)"/><rect x="295" y="68" width="54" height="32" rx="9" fill="#172033" stroke="#5eead4" stroke-opacity=".28"/>
<rect x="34" y="114" width="54" height="32" rx="9" fill="#172033" stroke="#5eead4" stroke-opacity=".28"/><rect x="121" y="114" width="54" height="32" rx="9" fill="#7c9eff" opacity=".35"/><rect x="208" y="114" width="54" height="32" rx="9" fill="#fb7185"/><rect x="295" y="114" width="54" height="32" rx="9" fill="url(#c)"/>
<path d="M195 -8v176" stroke="#fbbf24" stroke-width="5" stroke-linecap="round"/><circle cx="195" cy="-8" r="9" fill="#fbbf24"/>
</g>
<path d="M48 306h544" stroke="#5eead4" stroke-opacity=".28"/><text x="42" y="333" fill="#b6c4dc" font-family="Arial, sans-serif" font-size="15" font-weight="700">CRAFT THE FOUR-STEP RHYTHM. MATCH THE TARGET. CHAIN THE STREAK.</text>
</svg>
