<svg xmlns="http://www.w3.org/2000/svg" viewBox="0 0 640 360" width="640" height="360">
  <defs>
    <linearGradient id="bg" x1="0" x2="0" y1="0" y2="1">
      <stop offset="0" stop-color="#0b0f14"/>
      <stop offset="1" stop-color="#070b12"/>
    </linearGradient>
    <radialGradient id="t" cx=".14" cy=".08" r=".7">
      <stop offset="0" stop-color="#5eead4" stop-opacity=".25"/>
      <stop offset="1" stop-color="#5eead4" stop-opacity="0"/>
    </radialGradient>
    <radialGradient id="p" cx=".88" cy=".82" r=".55">
      <stop offset="0" stop-color="#f472b6" stop-opacity=".17"/>
      <stop offset="1" stop-color="#f472b6" stop-opacity="0"/>
    </radialGradient>
    <filter id="g" x="-70%" y="-70%" width="240%" height="240%">
      <feGaussianBlur stdDeviation="6" result="b"/>
      <feMerge><feMergeNode in="b"/><feMergeNode in="SourceGraphic"/></feMerge>
    </filter>
  </defs>
  <rect width="640" height="360" fill="url(#bg)"/>
  <rect width="640" height="360" fill="url(#t)"/>
  <rect width="640" height="360" fill="url(#p)"/>
  <g font-family="ui-sans-serif,system-ui,-apple-system,'Segoe UI',Roboto,Arial,sans-serif">
    <text x="36" y="60" font-size="12" fill="#5eead4" font-weight="800">WORKSHOP ARCADE</text>
    <text x="36" y="108" font-size="38" fill="#e6edf3" font-weight="900">TYPEFORGE</text>
    <text x="36" y="150" font-size="38" fill="#e6edf3" font-weight="900">CIPHER</text>
    <text x="38" y="196" font-size="13" fill="#9fb0c8">Four columns. Falling fragments.</text>
    <text x="38" y="216" font-size="13" fill="#9fb0c8">Focus, type, chain the solve.</text>
  </g>
  <g transform="translate(326 38)">
    <rect width="270" height="268" rx="18" fill="#081321" stroke="#5eead4" stroke-opacity=".32"/>
    <g stroke="#5eead4" stroke-opacity=".18" stroke-width="2">
      <path d="M68 30v202"/><path d="M135 30v202"/><path d="M202 30v202"/>
      <path d="M22 224h226"/>
    </g>
    <g font-family="ui-monospace,SFMono-Regular,Consolas,monospace" font-weight="900" text-anchor="middle">
      <text x="34" y="52" font-size="12" fill="#5eead4">1</text>
      <text x="101" y="52" font-size="12" fill="#22d3ee">2</text>
      <text x="168" y="52" font-size="12" fill="#7c9eff">3</text>
      <text x="235" y="52" font-size="12" fill="#f472b6">4</text>
      <g filter="url(#g)">
        <rect x="14" y="80" width="48" height="24" rx="9" fill="#5eead4"/>
        <text x="38" y="97" font-size="13" fill="#07101a">QA</text>
      </g>
      <rect x="78" y="126" width="58" height="24" rx="9" fill="#22d3ee"/>
      <text x="107" y="143" font-size="13" fill="#07101a">LNZ</text>
      <rect x="146" y="162" width="48" height="24" rx="9" fill="#7c9eff"/>
      <text x="170" y="179" font-size="13" fill="#07101a">VT</text>
      <g filter="url(#g)">
        <rect x="210" y="194" width="46" height="24" rx="9" fill="#f472b6"/>
        <text x="233" y="211" font-size="13" fill="#07101a">GK</text>
      </g>
    </g>
    <rect x="36" y="238" width="198" height="18" rx="9" fill="#0b1526" stroke="#5eead4" stroke-opacity=".34"/>
    <rect x="44" y="244" width="78" height="6" rx="3" fill="#5eead4"/>
    <text x="135" y="274" font-family="ui-sans-serif,system-ui" font-size="15" fill="#e6edf3" font-weight="900" text-anchor="middle">COMBO 08</text>
  </g>
</svg>
